<?xml version="1.0" encoding="UTF-8" standalone="no"?>
<!DOCTYPE svg PUBLIC "-//W3C//DTD SVG 1.1//EN"
 "http://www.w3.org/Graphics/SVG/1.1/DTD/svg11.dtd">
<!-- Generated by graphviz version 2.38.0 (20140413.2041)
 -->
<!-- Title: DD Pages: 1 -->
<svg width="322pt" height="260pt"
 viewBox="0.00 0.00 321.50 260.00" xmlns="http://www.w3.org/2000/svg" xmlns:xlink="http://www.w3.org/1999/xlink">
<g id="graph0" class="graph" transform="scale(1 1) rotate(0) translate(4 256)">
<title>DD</title>
<polygon fill="white" stroke="none" points="-4,4 -4,-256 317.5,-256 317.5,4 -4,4"/>
<!-- CONST NODES -->
<!--  x1  -->
<g id="node2" class="node"><title> x1 </title>
<text text-anchor="middle" x="55" y="-158.3" font-family="Times,serif" font-size="14.00"> x1 </text>
</g>
<!--  x2  -->
<g id="node3" class="node"><title> x2 </title>
<text text-anchor="middle" x="55" y="-86.3" font-family="Times,serif" font-size="14.00"> x2 </text>
</g>
<!--  x1 &#45;&gt; x2  -->
<!--  x2 &#45;&gt;CONST NODES -->
<!--  &#160;Image of (x1 x2 ! .) under (mod3_ctr.dot) &#160; -->
<g id="node4" class="node"><title> &#160;Image of (x1 x2 ! .) under (mod3_ctr.dot) &#160;</title>
<polygon fill="none" stroke="black" points="313.5,-252 52.5,-252 52.5,-216 313.5,-216 313.5,-252"/>
<text text-anchor="middle" x="183" y="-230.3" font-family="Times,serif" font-size="14.00"> &#160;Image of (x1 x2 ! .) under (mod3_ctr.dot) &#160;</text>
</g>
<!-- 0x76 -->
<g id="node5" class="node"><title>0x76</title>
<ellipse fill="none" stroke="black" cx="183" cy="-162" rx="28.6953" ry="18"/>
<text text-anchor="middle" x="183" y="-158.3" font-family="Times,serif" font-size="14.00">0x76</text>
</g>
<!--  &#160;Image of (x1 x2 ! .) under (mod3_ctr.dot) &#160;&#45;&gt;0x76 -->
<g id="edge3" class="edge"><title> &#160;Image of (x1 x2 ! .) under (mod3_ctr.dot) &#160;&#45;&gt;0x76</title>
<path fill="none" stroke="black" stroke-dasharray="1,5" d="M183,-215.697C183,-204.846 183,-190.917 183,-180.104"/>
</g>
<!-- 0x64 -->
<g id="node6" class="node"><title>0x64</title>
<ellipse fill="none" stroke="black" cx="155" cy="-90" rx="28.6953" ry="18"/>
<text text-anchor="middle" x="155" y="-86.3" font-family="Times,serif" font-size="14.00">0x64</text>
</g>
<!-- 0x76&#45;&gt;0x64 -->
<g id="edge4" class="edge"><title>0x76&#45;&gt;0x64</title>
<path fill="none" stroke="black" d="M176.364,-144.411C171.966,-133.414 166.211,-119.027 161.782,-107.956"/>
</g>
<!-- 0x5f -->
<g id="node7" class="node"><title>0x5f</title>
<polygon fill="none" stroke="black" points="182,-36 128,-36 128,-0 182,-0 182,-36"/>
<text text-anchor="middle" x="155" y="-14.3" font-family="Times,serif" font-size="14.00">1</text>
</g>
<!-- 0x76&#45;&gt;0x5f -->
<g id="edge5" class="edge"><title>0x76&#45;&gt;0x5f</title>
<path fill="none" stroke="black" stroke-dasharray="1,5" d="M188.97,-144.184C194.505,-125.974 200.804,-96.2763 193,-72 188.704,-58.6342 179.654,-45.7817 171.463,-36.0811"/>
</g>
<!-- 0x64&#45;&gt;0x5f -->
<g id="edge6" class="edge"><title>0x64&#45;&gt;0x5f</title>
<path fill="none" stroke="black" d="M149.122,-72.055C147.971,-61.2111 147.96,-47.183 149.087,-36.2753"/>
</g>
<!-- 0x64&#45;&gt;0x5f -->
<g id="edge7" class="edge"><title>0x64&#45;&gt;0x5f</title>
<path fill="none" stroke="black" stroke-dasharray="1,5" d="M160.878,-72.055C162.029,-61.2111 162.04,-47.183 160.913,-36.2753"/>
</g>
</g>
</svg>
