<?xml version="1.0" encoding="UTF-8" standalone="no"?>
<!DOCTYPE svg PUBLIC "-//W3C//DTD SVG 1.1//EN"
 "http://www.w3.org/Graphics/SVG/1.1/DTD/svg11.dtd">
<!-- Generated by graphviz version 2.38.0 (20140413.2041)
 -->
<!-- Title: DD Pages: 1 -->
<svg width="318pt" height="260pt"
 viewBox="0.00 0.00 317.50 260.00" xmlns="http://www.w3.org/2000/svg" xmlns:xlink="http://www.w3.org/1999/xlink">
<g id="graph0" class="graph" transform="scale(1 1) rotate(0) translate(4 256)">
<title>DD</title>
<polygon fill="white" stroke="none" points="-4,4 -4,-256 313.5,-256 313.5,4 -4,4"/>
<!-- CONST NODES -->
<!--  x0  -->
<g id="node2" class="node"><title> x0 </title>
<text text-anchor="middle" x="55" y="-158.3" font-family="Times,serif" font-size="14.00"> x0 </text>
</g>
<!--  x1  -->
<g id="node3" class="node"><title> x1 </title>
<text text-anchor="middle" x="55" y="-86.3" font-family="Times,serif" font-size="14.00"> x1 </text>
</g>
<!--  x0 &#45;&gt; x1  -->
<!--  x1 &#45;&gt;CONST NODES -->
<!--  &#160;Image of (x0 ! x1 ! .) under (testAX.dot) &#160; -->
<g id="node4" class="node"><title> &#160;Image of (x0 ! x1 ! .) under (testAX.dot) &#160;</title>
<polygon fill="none" stroke="black" points="309.5,-252 54.5,-252 54.5,-216 309.5,-216 309.5,-252"/>
<text text-anchor="middle" x="182" y="-230.3" font-family="Times,serif" font-size="14.00"> &#160;Image of (x0 ! x1 ! .) under (testAX.dot) &#160;</text>
</g>
<!-- 0x15 -->
<g id="node5" class="node"><title>0x15</title>
<ellipse fill="none" stroke="black" cx="182" cy="-162" rx="28.6953" ry="18"/>
<text text-anchor="middle" x="182" y="-158.3" font-family="Times,serif" font-size="14.00">0x15</text>
</g>
<!--  &#160;Image of (x0 ! x1 ! .) under (testAX.dot) &#160;&#45;&gt;0x15 -->
<g id="edge3" class="edge"><title> &#160;Image of (x0 ! x1 ! .) under (testAX.dot) &#160;&#45;&gt;0x15</title>
<path fill="none" stroke="black" stroke-dasharray="1,5" d="M182,-215.697C182,-204.846 182,-190.917 182,-180.104"/>
</g>
<!-- 0x5 -->
<g id="node6" class="node"><title>0x5</title>
<ellipse fill="none" stroke="black" cx="155" cy="-90" rx="27" ry="18"/>
<text text-anchor="middle" x="155" y="-86.3" font-family="Times,serif" font-size="14.00">0x5</text>
</g>
<!-- 0x15&#45;&gt;0x5 -->
<g id="edge5" class="edge"><title>0x15&#45;&gt;0x5</title>
<path fill="none" stroke="black" stroke-dasharray="1,5" d="M175.601,-144.411C171.36,-133.414 165.811,-119.027 161.54,-107.956"/>
</g>
<!-- 0 -->
<g id="node7" class="node"><title>0</title>
<polygon fill="none" stroke="black" points="182,-36 128,-36 128,-0 182,-0 182,-36"/>
<text text-anchor="middle" x="155" y="-14.3" font-family="Times,serif" font-size="14.00">1</text>
</g>
<!-- 0x15&#45;&gt;0 -->
<g id="edge4" class="edge"><title>0x15&#45;&gt;0</title>
<path fill="none" stroke="black" d="M187.552,-144.211C192.687,-126.023 198.486,-96.3445 191,-72 186.946,-58.8163 178.373,-45.9695 170.61,-36.2264"/>
</g>
<!-- 0x5&#45;&gt;0 -->
<g id="edge6" class="edge"><title>0x5&#45;&gt;0</title>
<path fill="none" stroke="black" d="M149.16,-72.411C147.978,-61.5758 147.947,-47.4498 149.07,-36.4468"/>
</g>
<!-- 0x5&#45;&gt;0 -->
<g id="edge7" class="edge"><title>0x5&#45;&gt;0</title>
<path fill="none" stroke="black" stroke-dasharray="1,5" d="M160.84,-72.411C162.022,-61.5758 162.053,-47.4498 160.93,-36.4468"/>
</g>
</g>
</svg>
