<?xml version="1.0" encoding="UTF-8" standalone="no"?>
<!DOCTYPE svg PUBLIC "-//W3C//DTD SVG 1.1//EN"
 "http://www.w3.org/Graphics/SVG/1.1/DTD/svg11.dtd">
<!-- Generated by graphviz version 2.38.0 (20140413.2041)
 -->
<!-- Title: DD Pages: 1 -->
<svg width="363pt" height="332pt"
 viewBox="0.00 0.00 362.50 332.00" xmlns="http://www.w3.org/2000/svg" xmlns:xlink="http://www.w3.org/1999/xlink">
<g id="graph0" class="graph" transform="scale(1 1) rotate(0) translate(4 328)">
<title>DD</title>
<polygon fill="white" stroke="none" points="-4,4 -4,-328 358.5,-328 358.5,4 -4,4"/>
<!-- CONST NODES -->
<!--  x2  -->
<g id="node2" class="node"><title> x2 </title>
<text text-anchor="middle" x="55" y="-230.3" font-family="Times,serif" font-size="14.00"> x2 </text>
</g>
<!--  x1  -->
<g id="node3" class="node"><title> x1 </title>
<text text-anchor="middle" x="55" y="-158.3" font-family="Times,serif" font-size="14.00"> x1 </text>
</g>
<!--  x2 &#45;&gt; x1  -->
<!--  x0  -->
<g id="node4" class="node"><title> x0 </title>
<text text-anchor="middle" x="55" y="-86.3" font-family="Times,serif" font-size="14.00"> x0 </text>
</g>
<!--  x1 &#45;&gt; x0  -->
<!--  x0 &#45;&gt;CONST NODES -->
<!--  &#160;Image of (x2 ! x1 ! . x0 ! .) under (testEG.dot) &#160; -->
<g id="node5" class="node"><title> &#160;Image of (x2 ! x1 ! . x0 ! .) under (testEG.dot) &#160;</title>
<polygon fill="none" stroke="black" points="354.5,-324 67.5,-324 67.5,-288 354.5,-288 354.5,-324"/>
<text text-anchor="middle" x="211" y="-302.3" font-family="Times,serif" font-size="14.00"> &#160;Image of (x2 ! x1 ! . x0 ! .) under (testEG.dot) &#160;</text>
</g>
<!-- 0x47 -->
<g id="node6" class="node"><title>0x47</title>
<ellipse fill="none" stroke="black" cx="211" cy="-234" rx="28.6953" ry="18"/>
<text text-anchor="middle" x="211" y="-230.3" font-family="Times,serif" font-size="14.00">0x47</text>
</g>
<!--  &#160;Image of (x2 ! x1 ! . x0 ! .) under (testEG.dot) &#160;&#45;&gt;0x47 -->
<g id="edge4" class="edge"><title> &#160;Image of (x2 ! x1 ! . x0 ! .) under (testEG.dot) &#160;&#45;&gt;0x47</title>
<path fill="none" stroke="black" stroke-dasharray="1,5" d="M211,-287.697C211,-276.846 211,-262.917 211,-252.104"/>
</g>
<!-- 0x46 -->
<g id="node7" class="node"><title>0x46</title>
<ellipse fill="none" stroke="black" cx="183" cy="-162" rx="28.6953" ry="18"/>
<text text-anchor="middle" x="183" y="-158.3" font-family="Times,serif" font-size="14.00">0x46</text>
</g>
<!-- 0x47&#45;&gt;0x46 -->
<g id="edge5" class="edge"><title>0x47&#45;&gt;0x46</title>
<path fill="none" stroke="black" d="M204.364,-216.411C199.966,-205.414 194.211,-191.027 189.782,-179.956"/>
</g>
<!-- 0 -->
<g id="node9" class="node"><title>0</title>
<polygon fill="none" stroke="black" points="195,-36 141,-36 141,-0 195,-0 195,-36"/>
<text text-anchor="middle" x="168" y="-14.3" font-family="Times,serif" font-size="14.00">1</text>
</g>
<!-- 0x47&#45;&gt;0 -->
<g id="edge6" class="edge"><title>0x47&#45;&gt;0</title>
<path fill="none" stroke="black" stroke-dasharray="5,2" d="M215.483,-216.221C219.666,-198.294 224.744,-169.066 221,-144 216.057,-110.907 212.426,-102.649 199,-72 193.525,-59.5021 185.775,-46.2521 179.394,-36.1266"/>
</g>
<!-- 0x7 -->
<g id="node8" class="node"><title>0x7</title>
<ellipse fill="none" stroke="black" cx="147" cy="-90" rx="27" ry="18"/>
<text text-anchor="middle" x="147" y="-86.3" font-family="Times,serif" font-size="14.00">0x7</text>
</g>
<!-- 0x46&#45;&gt;0x7 -->
<g id="edge7" class="edge"><title>0x46&#45;&gt;0x7</title>
<path fill="none" stroke="black" d="M174.65,-144.765C168.835,-133.456 161.11,-118.437 155.304,-107.147"/>
</g>
<!-- 0x46&#45;&gt;0 -->
<g id="edge8" class="edge"><title>0x46&#45;&gt;0</title>
<path fill="none" stroke="black" stroke-dasharray="1,5" d="M184.392,-143.842C185.527,-125.848 186.441,-96.7936 183,-72 181.317,-59.8758 177.567,-46.6258 174.238,-36.4069"/>
</g>
<!-- 0x7&#45;&gt;0 -->
<g id="edge9" class="edge"><title>0x7&#45;&gt;0</title>
<path fill="none" stroke="black" d="M146.275,-71.6966C148.411,-60.8463 152.597,-46.9167 156.974,-36.1043"/>
</g>
<!-- 0x7&#45;&gt;0 -->
<g id="edge10" class="edge"><title>0x7&#45;&gt;0</title>
<path fill="none" stroke="black" stroke-dasharray="1,5" d="M157.526,-73.1159C162.083,-62.144 166.511,-47.5568 168.727,-36.2921"/>
</g>
</g>
</svg>
