<?xml version="1.0" encoding="UTF-8" standalone="no"?>
<!DOCTYPE svg PUBLIC "-//W3C//DTD SVG 1.1//EN"
 "http://www.w3.org/Graphics/SVG/1.1/DTD/svg11.dtd">
<!-- Generated by graphviz version 2.38.0 (20140413.2041)
 -->
<!-- Title: DD Pages: 1 -->
<svg width="290pt" height="188pt"
 viewBox="0.00 0.00 290.00 188.00" xmlns="http://www.w3.org/2000/svg" xmlns:xlink="http://www.w3.org/1999/xlink">
<g id="graph0" class="graph" transform="scale(1 1) rotate(0) translate(4 184)">
<title>DD</title>
<polygon fill="white" stroke="none" points="-4,4 -4,-184 286,-184 286,4 -4,4"/>
<!-- CONST NODES -->
<!--  x0  -->
<g id="node2" class="node"><title> x0 </title>
<text text-anchor="middle" x="55" y="-86.3" font-family="Times,serif" font-size="14.00"> x0 </text>
</g>
<!--  x0 &#45;&gt;CONST NODES -->
<!--  &#160;Image of (x0 ! x1 ! .) under (testEX.dot) &#160; -->
<g id="node3" class="node"><title> &#160;Image of (x0 ! x1 ! .) under (testEX.dot) &#160;</title>
<polygon fill="none" stroke="black" points="282,-180 28,-180 28,-144 282,-144 282,-180"/>
<text text-anchor="middle" x="155" y="-158.3" font-family="Times,serif" font-size="14.00"> &#160;Image of (x0 ! x1 ! .) under (testEX.dot) &#160;</text>
</g>
<!-- 0x63 -->
<g id="node4" class="node"><title>0x63</title>
<ellipse fill="none" stroke="black" cx="155" cy="-90" rx="28.6953" ry="18"/>
<text text-anchor="middle" x="155" y="-86.3" font-family="Times,serif" font-size="14.00">0x63</text>
</g>
<!--  &#160;Image of (x0 ! x1 ! .) under (testEX.dot) &#160;&#45;&gt;0x63 -->
<g id="edge2" class="edge"><title> &#160;Image of (x0 ! x1 ! .) under (testEX.dot) &#160;&#45;&gt;0x63</title>
<path fill="none" stroke="black" d="M155,-143.697C155,-132.846 155,-118.917 155,-108.104"/>
</g>
<!-- 0x5f -->
<g id="node5" class="node"><title>0x5f</title>
<polygon fill="none" stroke="black" points="182,-36 128,-36 128,-0 182,-0 182,-36"/>
<text text-anchor="middle" x="155" y="-14.3" font-family="Times,serif" font-size="14.00">1</text>
</g>
<!-- 0x63&#45;&gt;0x5f -->
<g id="edge3" class="edge"><title>0x63&#45;&gt;0x5f</title>
<path fill="none" stroke="black" d="M149.122,-72.055C147.971,-61.2111 147.96,-47.183 149.087,-36.2753"/>
</g>
<!-- 0x63&#45;&gt;0x5f -->
<g id="edge4" class="edge"><title>0x63&#45;&gt;0x5f</title>
<path fill="none" stroke="black" stroke-dasharray="1,5" d="M160.878,-72.055C162.029,-61.2111 162.04,-47.183 160.913,-36.2753"/>
</g>
</g>
</svg>
